<svg width="102" height="132" fill="none" xmlns="http://www.w3.org/2000/svg"><path d="M87.25 29.83a14.75 14.75 0 1 0 0-29.5 14.75 14.75 0 0 0 0 29.5ZM33.87 85.75l-7.07 17.88-22.82 14.91a7.16 7.16 0 1 0 7.65 12.09c3.76-2.37 22.35-14.08 25.5-15.88 3.5-2 4.12-5.13 4.12-5.13l4.87-16L40.37 91c-5.75-2.63-6.5-5.25-6.5-5.25ZM84.08 87.67s-1.16-3.84-4.58-5.17-18.08-7.75-18.08-7.75l15.41-25.58s3.84-9-.33-13.42S62.75 26 62.75 26H36L16.08 40.43a7.2 7.2 0 0 0-1.23.89l-.03.02a7.17 7.17 0 0 0 8.96 11.14l.08-.05.52-.43 14.74-11.88H55L40.25 66.33s-5.13 9.22-.33 14.25c4.2 4.42 12.66 6.92 12.66 6.92L69.83 94l5.1 31.29h.01a7.16 7.16 0 0 0 14.2-1.7h.04l-5.1-35.92Z" fill="#3A3A3A"/></svg>