<svg width="78" height="78" fill="none" xmlns="http://www.w3.org/2000/svg"><path d="M18.44 77.54c-3.45 0-6.06-.6-6.17-.62a2.5 2.5 0 0 1-1.22-4.19l7.38-7.52c-1.03-3.84-3.33-5.35-4.66-5.92l-8.29 7.26a2.5 2.5 0 0 1-4-1.02 19.63 19.63 0 0 1 2.76-18.62 18.22 18.22 0 0 1 13.96-6.36c2.78 0 5.16.57 6.66 1.05l16.77-16.76c-1.01-3.43-2.46-11.54 3.54-18.47a15.48 15.48 0 0 1 12-5.56c4.84 0 8.67 2.03 8.83 2.12.25.13.48.31.68.53l.18.2c.9 1 .85 2.51-.1 3.45l-6.8 6.73c.78 2.88 3.02 4.54 4.46 5.33l8.22-7.4a2.5 2.5 0 0 1 4.1 1.27c2.13 8.8.48 15.6-5.03 20.78-2.57 2.42-6.35 3.64-11.24 3.64-2.79 0-5.32-.4-6.84-.71L37.13 53.4c.73 3.18 1.63 10.62-3.44 17.57-3.14 4.3-8.4 6.57-15.25 6.57Zm-.2-5c3.66.01 8.64-.72 11.4-4.51 4.95-6.78 2.44-14.22 2.34-14.53-.32-.9-.1-1.91.58-2.6l18.5-18.66a2.5 2.5 0 0 1 2.43-.65c.03 0 3.3.87 6.98.87 2.46 0 5.81-.4 7.82-2.28 3.29-3.1 4.68-6.78 4.3-11.64l-6.04 5.44c-.67.6-1.62.8-2.48.51-.33-.11-8.29-2.89-9.3-11.19a2.5 2.5 0 0 1 .72-2.08l5.05-5c-.98-.23-2.14-.41-3.37-.41-3.26 0-6.02 1.29-8.22 3.82-5.65 6.54-2.19 14.8-2.15 14.88.4.94.2 2.03-.53 2.76l-19 19a2.5 2.5 0 0 1-2.82.5c-.02-.01-2.73-1.22-6.25-1.22-4 0-7.4 1.53-10.12 4.56-.35.45-3.29 4.38-2.76 9.94l6.2-5.43a2.5 2.5 0 0 1 2.03-.6c.33.06 8.29 1.4 10.08 11.54a2.5 2.5 0 0 1-.68 2.2l-4.7 4.78Z" fill="#F0C42E"/></svg>