<svg width="76" height="75" fill="none" xmlns="http://www.w3.org/2000/svg"><path d="m17.92 26.02 9.24 10.29 3.54-3.54-13.29-14.8-2.73 3.96L7.4 11.3l4.73-4.73 10.63 7.28-3.95 2.73L33.6 29.87l3.54-3.55-10.28-9.23 4.72-3.27L11.53.1.93 10.7l13.73 20.04 3.26-4.71ZM56.15 35.28a37.19 37.19 0 0 1-3.52-.53L50.6 36.8l18.7 18.7c.46.6 3.1 4.3.09 7.58l-5.48 5.47c-3.25 2.98-6.9.44-7.58-.08L37.7 49.82l-1.56 1.58c.24 1.07.5 2.63.55 4.48L52.9 72.1l.17.16a12.28 12.28 0 0 0 7.45 2.72c2.23 0 4.63-.74 6.85-2.82l5.52-5.52.1-.1c5.02-5.36 2.26-11.7.1-14.3L56.15 35.28Z" fill="#3A3A3A"/></svg>