<svg width="74" height="86" fill="none" xmlns="http://www.w3.org/2000/svg"><path d="M54.58 86c-2.79 0-9.99-.62-16.55-6.37-.72-.62-1.7-1.4-2.86-2.3C25.75 69.93 6.13 54.5-.28 18.78l-.07-.4.02-.42c.05-.75.75-7.56 11.63-15.31.88-.62 3.91-2.6 6.76-2.6 1.7 0 3.2.7 4.18 1.95l14.67 18.5.22.3a6.56 6.56 0 0 1-1.25 8.43l-5.9 5.9c-.17 2.11-.19 7.26 3.1 11.1 3.69 4.31 7.5 5.79 9.27 6.27l5.5-2.75c.67-.38 2.94-1.55 5.5-1.55 2.29 0 4.27.95 5.6 2.68a1741.1 1741.1 0 0 0 12.6 15.76l.16.2c1.11 1.61 2.33 5.15-.17 8.21-1.45 1.77-6.5 7.7-10.87 9.78-1.6.76-3.71 1.17-6.09 1.17ZM6.72 18.14c6.05 32.68 24.09 46.85 32.78 53.68 1.23.97 2.28 1.8 3.14 2.55A18.7 18.7 0 0 0 54.58 79c1.51 0 2.59-.25 3.08-.5 2.11-1 5.73-4.57 8.29-7.67C64.54 69.1 55.58 58 53.44 55.2h-.1c-.73 0-1.78.48-2.07.64l-.21.12-7.65 3.83-1.08-.16c-1.33-.19-8.3-1.5-14.58-8.85-6.44-7.53-4.61-17.52-4.53-17.94l.2-1.06 7.53-7.52-13.5-17.03c-.61.23-1.47.69-2.12 1.14-6.8 4.83-8.33 8.8-8.62 9.77Z" fill="#3A3A3A"/></svg>